<svg width="484" height="415" viewBox="0 0 484 415" fill="none" xmlns="http://www.w3.org/2000/svg">
<path d="M47 198.118V96.7829H77.7877L77.1879 115.371C81.986 102.379 92.7817 94.5843 107.576 94.5843C122.77 94.5843 134.765 102.979 140.563 116.37C145.361 102.779 156.956 94.5843 172.95 94.5843C194.341 94.5843 209.335 110.774 209.335 133.959V198.118H178.547V140.555C178.547 127.363 172.35 119.368 161.954 119.368C150.958 119.368 144.361 127.763 144.361 142.154V198.118H113.773V140.555C113.773 127.363 107.376 119.368 96.1803 119.368C84.7849 119.368 77.7877 127.763 77.7877 142.154V198.118H47Z" fill="#14003E"/>
<path d="M228.629 197.319L240.624 95.5837L271.012 99.1814L259.217 200.716L228.629 197.319Z" fill="#14003E"/>
<path d="M290.543 198.118V96.7829H321.331L320.731 115.571C325.529 102.579 336.125 94.5843 351.319 94.5843C372.91 94.5843 388.304 111.374 388.304 135.558V198.118H357.517V140.555C357.517 127.363 350.919 119.368 339.924 119.368C328.328 119.368 321.331 127.763 321.331 142.154V198.118H290.543Z" fill="#14003E"/>
<path d="M462.807 199.317C423.823 204.314 409.828 182.328 417.026 149.949L423.423 120.967L403.431 116.77L408.429 91.986L428.821 96.1833L434.619 70L464.007 76.196L458.209 102.379L481 107.176L475.802 132.16L452.811 127.163L448.213 147.95C444.615 164.34 445.014 176.332 466.006 174.133L462.807 199.317Z" fill="#14003E"/>
<path d="M115.872 379.202C76.8873 384.199 62.8929 362.213 70.09 329.834L76.4874 300.852L56.4954 296.655L61.4934 271.871L81.8853 276.068L87.683 249.885L117.071 256.081L111.274 282.264L134.064 287.061L128.867 312.045L105.876 307.049L101.278 327.835C97.679 344.225 98.0788 356.217 119.07 354.019L115.872 379.202Z" fill="#14003E"/>
<path d="M143.534 377.204L155.529 275.469L185.917 279.066L174.122 380.602L143.534 377.204Z" fill="#14003E"/>
<path d="M223.404 383L202.212 283.863L232.4 277.467L236.798 302.252C236.998 280.266 251.193 269.872 268.986 270.072L275.383 300.053C257.19 300.853 239.397 309.847 244.595 335.231L253.392 376.404L223.404 383Z" fill="#14003E"/>
<path d="M333.193 381.401C303.804 381.401 283.213 361.014 283.213 333.232C283.213 300.053 311.801 273.47 344.788 273.47C373.976 273.47 394.768 293.657 394.768 321.239C394.768 354.418 366.379 381.401 333.193 381.401ZM333.792 354.618C350.986 354.618 363.98 337.629 363.98 321.04C363.98 308.648 356.183 300.253 344.188 300.253C327.195 300.253 313.8 316.642 313.8 333.432C313.8 345.824 321.797 354.618 333.792 354.618Z" fill="#14003E"/>
<path d="M458.436 378.403C422.851 382.201 407.057 362.413 414.054 328.035L434.046 233.296L463.434 239.092L443.842 332.232C440.444 347.623 447.841 354.418 463.434 353.619L458.436 378.403Z" fill="#14003E"/>
<rect x="338.218" y="325" width="90" height="90" rx="45" fill="#04F3B9"/>
<rect y="234.234" width="90" height="90" rx="45" fill="#FFAA04"/>
<rect x="129" y="180.182" width="90" height="90" rx="45" fill="#16ABFA"/>
<rect x="210.136" width="90" height="90" rx="45" fill="#F71933"/>
</svg>
